<svg xmlns="http://www.w3.org/2000/svg" width="960" height="300">
<desc>Created @ WordClouds.com</desc>
<style>@import url(https://fonts.googleapis.com/css?family=Raleway&amp;display=swap);@import url(https://fonts.googleapis.com/css?family=Helvetica&amp;display=swap);@import url(https://fonts.googleapis.com/css?family=Aboreto&amp;display=swap);</style><rect width="100%" height="100%" fill="transparent" /><text text-anchor="middle" font-family="Helvetica" font-size="200px" transform="rotate(2880, 489, 203)" fill="rgb(234,244,255)" x="489" y="273.5">Thank You</text><text text-anchor="middle" font-family="Raleway" font-size="48.08273255454465px" transform="rotate(3959.9999999999995, 478, 52)" fill="rgb(149,200,255)" x="478" y="64">React Bootstrap</text><text text-anchor="middle" font-family="Raleway" font-size="48.08273255454465px" transform="rotate(16920, 535, 100)" fill="rgb(191,222,255)" x="535" y="112">Open Source</text><text text-anchor="middle" font-family="Raleway" font-size="48.08273255454465px" transform="rotate(2520, 140, 75)" fill="rgb(213,233,255)" x="140" y="92.5">GitHub</text><text text-anchor="middle" font-family="Raleway" font-size="48.08273255454465px" transform="rotate(14400, 748, 63)" fill="rgb(128,189,255)" x="748" y="80.5">Vercel</text><text text-anchor="middle" font-family="Raleway" font-size="28.849639532726787px" transform="rotate(7919.999999999999, 343, 131)" fill="rgb(64,156,255)" x="343" y="138.5">JavaScript</text><text text-anchor="middle" font-family="Raleway" font-size="48.08273255454465px" transform="rotate(16200.000000000002, 831, 27)" fill="rgb(170,211,255)" x="831" y="43.5">React</text><text text-anchor="middle" font-family="Aboreto" font-size="28.849639532726787px" transform="rotate(7919.999999999999, 899, 57)" fill="rgb(85,167,255)" x="899" y="67.5">Iconify</text><text text-anchor="middle" font-family="Helvetica" font-size="28.849639532726787px" transform="rotate(9720, 918, 137)" fill="rgb(106,178,255)" x="918" y="147.5">Git</text><text text-anchor="middle" font-family="Raleway" font-size="9.616546510908929px" transform="rotate(10799.999999999998, 766, 295)" fill="rgb(21,134,255)" x="766" y="298.5">HTML5</text><text text-anchor="middle" font-family="Raleway" font-size="9.616546510908929px" transform="rotate(17639.999999999996, 234, 289)" fill="rgb(0,123,255)" x="234" y="291">npm</text><text text-anchor="middle" font-family="Aboreto" font-size="9.616546510908929px" transform="rotate(6120.000000000001, 557, 163)" fill="rgb(42,145,255)" x="557" y="166.5">CSS3</text><text text-anchor="middle" font-family="Helvetica" font-size="50px" transform="rotate(16920, 148, 37)" fill="rgb(234,244,255)" x="148" y="55">Thank You</text><text text-anchor="middle" font-family="Aboreto" font-size="24.041366277272324px" transform="rotate(1440, 833, 94)" fill="rgb(149,200,255)" x="833" y="102.5">React Bootstrap</text><text text-anchor="middle" font-family="Helvetica" font-size="24.041366277272324px" transform="rotate(9000, 538, 289)" fill="rgb(191,222,255)" x="538" y="295">Open Source</text><text text-anchor="middle" font-family="Raleway" font-size="48.08273255454465px" transform="rotate(14759.999999999998, 303, 94)" fill="rgb(213,233,255)" x="303" y="111.5">GitHub</text><text text-anchor="middle" font-family="Helvetica" font-size="48.08273255454465px" transform="rotate(3959.9999999999995, 122, 112)" fill="rgb(128,189,255)" x="122" y="129.5">Vercel</text><text text-anchor="middle" font-family="Helvetica" font-size="28.849639532726787px" transform="rotate(14039.999999999998, 568, 17)" fill="rgb(64,156,255)" x="568" y="24.5">JavaScript</text><text text-anchor="middle" font-family="Aboreto" font-size="24.041366277272324px" transform="rotate(18000, 57, 286)" fill="rgb(170,211,255)" x="57" y="294.5">React</text><text text-anchor="middle" font-family="Aboreto" font-size="28.849639532726787px" transform="rotate(9000, 816, 150)" fill="rgb(85,167,255)" x="816" y="160.5">Iconify</text><text text-anchor="middle" font-family="Aboreto" font-size="28.849639532726787px" transform="rotate(13679.999999999998, 716, 12)" fill="rgb(106,178,255)" x="716" y="22.5">Git</text><text text-anchor="middle" font-family="Raleway" font-size="9.616546510908929px" transform="rotate(5760, 560, 209)" fill="rgb(21,134,255)" x="560" y="212.5">HTML5</text><text text-anchor="middle" font-family="Aboreto" font-size="9.616546510908929px" transform="rotate(2880, 32, 63)" fill="rgb(0,123,255)" x="32" y="66.5">npm</text><text text-anchor="middle" font-family="Raleway" font-size="9.616546510908929px" transform="rotate(9000, 688, 292)" fill="rgb(42,145,255)" x="688" y="295.5">CSS3</text><text text-anchor="middle" font-family="Raleway" font-size="25px" transform="rotate(360, 384, 10)" fill="rgb(234,244,255)" x="384" y="19">Thank You</text><text text-anchor="middle" font-family="Helvetica" font-size="24.041366277272324px" transform="rotate(9360.000000000002, 781, 120)" fill="rgb(149,200,255)" x="781" y="126">React Bootstrap</text><text text-anchor="middle" font-family="Helvetica" font-size="24.041366277272324px" transform="rotate(2880, 379, 289)" fill="rgb(191,222,255)" x="379" y="295">Open Source</text><text text-anchor="middle" font-family="Aboreto" font-size="24.041366277272324px" transform="rotate(5040, 576, 150)" fill="rgb(213,233,255)" x="576" y="158.5">GitHub</text><text text-anchor="middle" font-family="Helvetica" font-size="24.041366277272324px" transform="rotate(17280, 613, 175)" fill="rgb(128,189,255)" x="613" y="183.5">Vercel</text><text text-anchor="middle" font-family="Raleway" font-size="14.424819766363393px" transform="rotate(18000, 318, 156)" fill="rgb(64,156,255)" x="318" y="160.5">JavaScript</text><text text-anchor="middle" font-family="Raleway" font-size="24.041366277272324px" transform="rotate(9360.000000000002, 615, 255)" fill="rgb(170,211,255)" x="615" y="263.5">React</text><text text-anchor="middle" font-family="Raleway" font-size="28.849639532726787px" transform="rotate(14759.999999999998, 624, 211)" fill="rgb(85,167,255)" x="624" y="218.5">Iconify</text><text text-anchor="middle" font-family="Raleway" font-size="28.849639532726787px" transform="rotate(17639.999999999996, 35, 197)" fill="rgb(106,178,255)" x="35" y="207.5">Git</text><text text-anchor="middle" font-family="Helvetica" font-size="9.616546510908929px" transform="rotate(1800, 193, 237)" fill="rgb(21,134,255)" x="193" y="240.5">HTML5</text><text text-anchor="middle" font-family="Helvetica" font-size="9.616546510908929px" transform="rotate(10080, 681, 8)" fill="rgb(0,123,255)" x="681" y="9.5">npm</text><text text-anchor="middle" font-family="Aboreto" font-size="9.616546510908929px" transform="rotate(1080, 905, 175)" fill="rgb(42,145,255)" x="905" y="178.5">CSS3</text><text text-anchor="middle" font-family="Helvetica" font-size="25px" transform="rotate(360, 164, 288)" fill="rgb(234,244,255)" x="164" y="297">Thank You</text><text text-anchor="middle" font-family="Aboreto" font-size="12.020683138636162px" transform="rotate(16200.000000000002, 708, 29)" fill="rgb(149,200,255)" x="708" y="33.5">React Bootstrap</text><text text-anchor="middle" font-family="Helvetica" font-size="12.020683138636162px" transform="rotate(6479.999999999999, 394, 159)" fill="rgb(191,222,255)" x="394" y="162.5">Open Source</text><text text-anchor="middle" font-family="Raleway" font-size="24.041366277272324px" transform="rotate(6839.999999999999, 546, 131)" fill="rgb(213,233,255)" x="546" y="140.5">GitHub</text><text text-anchor="middle" font-family="Raleway" font-size="24.041366277272324px" transform="rotate(14759.999999999998, 213, 148)" fill="rgb(128,189,255)" x="213" y="157">Vercel</text><text text-anchor="middle" font-family="Aboreto" font-size="14.424819766363393px" transform="rotate(8280, 863, 75)" fill="rgb(64,156,255)" x="863" y="78.5">JavaScript</text><text text-anchor="middle" font-family="Aboreto" font-size="24.041366277272324px" transform="rotate(16920, 142, 9)" fill="rgb(170,211,255)" x="142" y="17.5">React</text><text text-anchor="middle" font-family="Helvetica" font-size="14.424819766363393px" transform="rotate(8640, 730, 260)" fill="rgb(85,167,255)" x="730" y="263.5">Iconify</text><text text-anchor="middle" font-family="Aboreto" font-size="28.849639532726787px" transform="rotate(11160, 116, 225)" fill="rgb(106,178,255)" x="116" y="235.5">Git</text><text text-anchor="middle" font-family="Aboreto" font-size="9.616546510908929px" transform="rotate(5040, 108, 197)" fill="rgb(21,134,255)" x="108" y="200.5">HTML5</text><text text-anchor="middle" font-family="Raleway" font-size="9.616546510908929px" transform="rotate(4320, 277, 295)" fill="rgb(0,123,255)" x="277" y="297">npm</text><text text-anchor="middle" font-family="Helvetica" font-size="9.616546510908929px" transform="rotate(9000, 808, 225)" fill="rgb(42,145,255)" x="808" y="228.5">CSS3</text><text text-anchor="middle" font-family="Raleway" font-size="25px" transform="rotate(3959.9999999999995, 868, 287)" fill="rgb(234,244,255)" x="868" y="296">Thank You</text><text text-anchor="middle" font-family="Aboreto" font-size="12.020683138636162px" transform="rotate(13320, 688, 281)" fill="rgb(149,200,255)" x="688" y="285.5">React Bootstrap</text><text text-anchor="middle" font-family="Helvetica" font-size="12.020683138636162px" transform="rotate(9000, 53, 8)" fill="rgb(191,222,255)" x="53" y="11.5">Open Source</text><text text-anchor="middle" font-family="Helvetica" font-size="24.041366277272324px" transform="rotate(5040, 910, 112)" fill="rgb(213,233,255)" x="910" y="120.5">GitHub</text><text text-anchor="middle" font-family="Aboreto" font-size="24.041366277272324px" transform="rotate(12959.999999999998, 246, 9)" fill="rgb(128,189,255)" x="246" y="17.5">Vercel</text><text text-anchor="middle" font-family="Helvetica" font-size="14.424819766363393px" transform="rotate(9720, 258, 68)" fill="rgb(64,156,255)" x="258" y="72">JavaScript</text><text text-anchor="middle" font-family="Aboreto" font-size="24.041366277272324px" transform="rotate(10799.999999999998, 229, 125)" fill="rgb(170,211,255)" x="229" y="133.5">React</text><text text-anchor="middle" font-family="Raleway" font-size="14.424819766363393px" transform="rotate(8640, 117, 159)" fill="rgb(85,167,255)" x="117" y="163.5">Iconify</text><text text-anchor="middle" font-family="Helvetica" font-size="28.849639532726787px" transform="rotate(9360.000000000002, 418, 220)" fill="rgb(106,178,255)" x="418" y="230.5">Git</text><text text-anchor="middle" font-family="Raleway" font-size="9.616546510908929px" transform="rotate(11880.000000000002, 721, 224)" fill="rgb(21,134,255)" x="721" y="227.5">HTML5</text><text text-anchor="middle" font-family="Raleway" font-size="9.616546510908929px" transform="rotate(17639.999999999996, 948, 138)" fill="rgb(0,123,255)" x="948" y="140">npm</text><text text-anchor="middle" font-family="Helvetica" font-size="9.616546510908929px" transform="rotate(12240.000000000002, 186, 222)" fill="rgb(42,145,255)" x="186" y="225.5">CSS3</text><text text-anchor="middle" font-family="Raleway" font-size="12.5px" transform="rotate(18000, 587, 233)" fill="rgb(234,244,255)" x="587" y="238">Thank You</text><text text-anchor="middle" font-family="Raleway" font-size="6.010341569318081px" transform="rotate(16200.000000000002, 40, 87)" fill="rgb(149,200,255)" x="40" y="88.5">React Bootstrap</text><text text-anchor="middle" font-family="Helvetica" font-size="12.020683138636162px" transform="rotate(10080, 720, 40)" fill="rgb(191,222,255)" x="720" y="43.5">Open Source</text><text text-anchor="middle" font-family="Aboreto" font-size="12.020683138636162px" transform="rotate(6479.999999999999, 455, 159)" fill="rgb(213,233,255)" x="455" y="163.5">GitHub</text><text text-anchor="middle" font-family="Raleway" font-size="12.020683138636162px" transform="rotate(720, 414, 265)" fill="rgb(128,189,255)" x="414" y="270">Vercel</text><text text-anchor="middle" font-family="Raleway" font-size="7.212409883181697px" transform="rotate(8640, 284, 284)" fill="rgb(64,156,255)" x="284" y="286">JavaScript</text><text text-anchor="middle" font-family="Raleway" font-size="24.041366277272324px" transform="rotate(18000, 928, 14)" fill="rgb(170,211,255)" x="928" y="22.5">React</text><text text-anchor="middle" font-family="Raleway" font-size="14.424819766363393px" transform="rotate(12600, 22, 228)" fill="rgb(85,167,255)" x="22" y="232.5">Iconify</text><text text-anchor="middle" font-family="Helvetica" font-size="28.849639532726787px" transform="rotate(11880.000000000002, 112, 178)" fill="rgb(106,178,255)" x="112" y="188.5">Git</text><text text-anchor="middle" font-family="Helvetica" font-size="9.616546510908929px" transform="rotate(6120.000000000001, 577, 79)" fill="rgb(21,134,255)" x="577" y="82.5">HTML5</text><text text-anchor="middle" font-family="Raleway" font-size="9.616546510908929px" transform="rotate(2160, 717, 237)" fill="rgb(0,123,255)" x="717" y="239">npm</text><text text-anchor="middle" font-family="Raleway" font-size="9.616546510908929px" transform="rotate(6839.999999999999, 616, 125)" fill="rgb(42,145,255)" x="616" y="128.5">CSS3</text><text text-anchor="middle" font-family="Helvetica" font-size="12.5px" transform="rotate(10080, 33, 160)" fill="rgb(234,244,255)" x="33" y="165">Thank You</text><text text-anchor="middle" font-family="Raleway" font-size="6.010341569318081px" transform="rotate(18000, 684, 137)" fill="rgb(149,200,255)" x="684" y="138.5">React Bootstrap</text><text text-anchor="middle" font-family="Raleway" font-size="12.020683138636162px" transform="rotate(2160, 366, 28)" fill="rgb(191,222,255)" x="366" y="31">Open Source</text><text text-anchor="middle" font-family="Helvetica" font-size="12.020683138636162px" transform="rotate(17280, 21, 268)" fill="rgb(213,233,255)" x="21" y="272.5">GitHub</text><text text-anchor="middle" font-family="Raleway" font-size="12.020683138636162px" transform="rotate(16560, 24, 242)" fill="rgb(128,189,255)" x="24" y="247">Vercel</text><text text-anchor="middle" font-family="Raleway" font-size="7.212409883181697px" transform="rotate(7919.999999999999, 45, 79)" fill="rgb(64,156,255)" x="45" y="81">JavaScript</text><text text-anchor="middle" font-family="Helvetica" font-size="24.041366277272324px" transform="rotate(10799.999999999998, 924, 32)" fill="rgb(170,211,255)" x="924" y="40.5">React</text><text text-anchor="middle" font-family="Helvetica" font-size="14.424819766363393px" transform="rotate(13320, 772, 284)" fill="rgb(85,167,255)" x="772" y="287.5">Iconify</text><text text-anchor="middle" font-family="Helvetica" font-size="28.849639532726787px" transform="rotate(12240.000000000002, 129, 264)" fill="rgb(106,178,255)" x="129" y="274.5">Git</text><text text-anchor="middle" font-family="Helvetica" font-size="9.616546510908929px" transform="rotate(16920, 798, 237)" fill="rgb(21,134,255)" x="798" y="240.5">HTML5</text><text text-anchor="middle" font-family="Raleway" font-size="9.616546510908929px" transform="rotate(17280, 632, 235)" fill="rgb(0,123,255)" x="632" y="237">npm</text><text text-anchor="middle" font-family="Raleway" font-size="9.616546510908929px" transform="rotate(7919.999999999999, 13, 53)" fill="rgb(42,145,255)" x="13" y="56.5">CSS3</text><text text-anchor="middle" font-family="Helvetica" font-size="12.5px" transform="rotate(7200, 252, 164)" fill="rgb(234,244,255)" x="252" y="169">Thank You</text><text text-anchor="middle" font-family="Aboreto" font-size="6.010341569318081px" transform="rotate(3600, 631, 187)" fill="rgb(149,200,255)" x="631" y="189.5">React Bootstrap</text><text text-anchor="middle" font-family="Raleway" font-size="6.010341569318081px" transform="rotate(12959.999999999998, 526, 162)" fill="rgb(191,222,255)" x="526" y="163.5">Open Source</text><text text-anchor="middle" font-family="Raleway" font-size="12.020683138636162px" transform="rotate(5040, 28, 116)" fill="rgb(213,233,255)" x="28" y="121">GitHub</text><text text-anchor="middle" font-family="Helvetica" font-size="12.020683138636162px" transform="rotate(12959.999999999998, 300, 247)" fill="rgb(128,189,255)" x="300" y="251.5">Vercel</text><text text-anchor="middle" font-family="Aboreto" font-size="7.212409883181697px" transform="rotate(4320, 452, 77)" fill="rgb(64,156,255)" x="452" y="78.5">JavaScript</text><text text-anchor="middle" font-family="Aboreto" font-size="12.020683138636162px" transform="rotate(10440, 416, 248)" fill="rgb(170,211,255)" x="416" y="252.5">React</text><text text-anchor="middle" font-family="Aboreto" font-size="14.424819766363393px" transform="rotate(360, 118, 207)" fill="rgb(85,167,255)" x="118" y="212">Iconify</text><text text-anchor="middle" font-family="Aboreto" font-size="28.849639532726787px" transform="rotate(7200, 444, 135)" fill="rgb(106,178,255)" x="444" y="145.5">Git</text><text text-anchor="middle" font-family="Raleway" font-size="9.616546510908929px" transform="rotate(3959.9999999999995, 939, 163)" fill="rgb(21,134,255)" x="939" y="166.5">HTML5</text><text text-anchor="middle" font-family="Aboreto" font-size="9.616546510908929px" transform="rotate(6839.999999999999, 611, 163)" fill="rgb(0,123,255)" x="611" y="166.5">npm</text><text text-anchor="middle" font-family="Raleway" font-size="9.616546510908929px" transform="rotate(4680.000000000001, 719, 248)" fill="rgb(42,145,255)" x="719" y="251.5">CSS3</text><text text-anchor="middle" font-family="Raleway" font-size="6.25px" transform="rotate(8640, 239, 58)" fill="rgb(234,244,255)" x="239" y="60.5">Thank You</text><text text-anchor="middle" font-family="Aboreto" font-size="6.010341569318081px" transform="rotate(1440, 478, 3)" fill="rgb(149,200,255)" x="478" y="5.5">React Bootstrap</text><text text-anchor="middle" font-family="Aboreto" font-size="6.010341569318081px" transform="rotate(14400, 609, 275)" fill="rgb(191,222,255)" x="609" y="277.5">Open Source</text><text text-anchor="middle" font-family="Raleway" font-size="12.020683138636162px" transform="rotate(8280, 660, 270)" fill="rgb(213,233,255)" x="660" y="275">GitHub</text><text text-anchor="middle" font-family="Raleway" font-size="12.020683138636162px" transform="rotate(3600, 696, 151)" fill="rgb(128,189,255)" x="696" y="156">Vercel</text><text text-anchor="middle" font-family="Aboreto" font-size="7.212409883181697px" transform="rotate(4680.000000000001, 795, 212)" fill="rgb(64,156,255)" x="795" y="213.5">JavaScript</text><text text-anchor="middle" font-family="Raleway" font-size="12.020683138636162px" transform="rotate(13679.999999999998, 307, 21)" fill="rgb(170,211,255)" x="307" y="25.5">React</text><text text-anchor="middle" font-family="Aboreto" font-size="14.424819766363393px" transform="rotate(360, 118, 247)" fill="rgb(85,167,255)" x="118" y="252">Iconify</text><text text-anchor="middle" font-family="Helvetica" font-size="28.849639532726787px" transform="rotate(1080, 698, 94)" fill="rgb(106,178,255)" x="698" y="104.5">Git</text><text text-anchor="middle" font-family="Aboreto" font-size="9.616546510908929px" transform="rotate(1080, 913, 188)" fill="rgb(21,134,255)" x="913" y="191.5">HTML5</text><text text-anchor="middle" font-family="Helvetica" font-size="9.616546510908929px" transform="rotate(15839.999999999998, 303, 206)" fill="rgb(0,123,255)" x="303" y="207.5">npm</text><text text-anchor="middle" font-family="Aboreto" font-size="9.616546510908929px" transform="rotate(11520, 780, 225)" fill="rgb(42,145,255)" x="780" y="228.5">CSS3</text><text text-anchor="middle" font-family="Helvetica" font-size="6.25px" transform="rotate(9000, 488, 69)" fill="rgb(234,244,255)" x="488" y="71.5">Thank You</text><text text-anchor="middle" font-family="Helvetica" font-size="6.010341569318081px" transform="rotate(5040, 667, 20)" fill="rgb(149,200,255)" x="667" y="21.5">React Bootstrap</text><text text-anchor="middle" font-family="Aboreto" font-size="6.010341569318081px" transform="rotate(12959.999999999998, 835, 3)" fill="rgb(191,222,255)" x="835" y="5.5">Open Source</text><text text-anchor="middle" font-family="Helvetica" font-size="12.020683138636162px" transform="rotate(9720, 195, 209)" fill="rgb(213,233,255)" x="195" y="213.5">GitHub</text><text text-anchor="middle" font-family="Aboreto" font-size="12.020683138636162px" transform="rotate(10799.999999999998, 31, 181)" fill="rgb(128,189,255)" x="31" y="185.5">Vercel</text><text text-anchor="middle" font-family="Raleway" font-size="7.212409883181697px" transform="rotate(8640, 20, 107)" fill="rgb(64,156,255)" x="20" y="109">JavaScript</text><text text-anchor="middle" font-family="Helvetica" font-size="12.020683138636162px" transform="rotate(9360.000000000002, 209, 100)" fill="rgb(170,211,255)" x="209" y="104.5">React</text><text text-anchor="middle" font-family="Raleway" font-size="14.424819766363393px" transform="rotate(11880.000000000002, 475, 21)" fill="rgb(85,167,255)" x="475" y="25.5">Iconify</text><text text-anchor="middle" font-family="Raleway" font-size="28.849639532726787px" transform="rotate(17639.999999999996, 907, 213)" fill="rgb(106,178,255)" x="907" y="223.5">Git</text><text text-anchor="middle" font-family="Helvetica" font-size="9.616546510908929px" transform="rotate(12240.000000000002, 727, 212)" fill="rgb(21,134,255)" x="727" y="215.5">HTML5</text><text text-anchor="middle" font-family="Aboreto" font-size="9.616546510908929px" transform="rotate(10440, 364, 70)" fill="rgb(0,123,255)" x="364" y="73.5">npm</text><text text-anchor="middle" font-family="Aboreto" font-size="9.616546510908929px" transform="rotate(15839.999999999998, 806, 200)" fill="rgb(42,145,255)" x="806" y="203.5">CSS3</text><text text-anchor="middle" font-family="Helvetica" font-size="6.25px" transform="rotate(10080, 611, 137)" fill="rgb(234,244,255)" x="611" y="139.5">Thank You</text><text text-anchor="middle" font-family="Aboreto" font-size="6.010341569318081px" transform="rotate(6479.999999999999, 34, 259)" fill="rgb(149,200,255)" x="34" y="261.5">React Bootstrap</text><text text-anchor="middle" font-family="Raleway" font-size="6.010341569318081px" transform="rotate(720, 676, 125)" fill="rgb(191,222,255)" x="676" y="126.5">Open Source</text><text text-anchor="middle" font-family="Raleway" font-size="12.020683138636162px" transform="rotate(8640, 193, 273)" fill="rgb(213,233,255)" x="193" y="278">GitHub</text><text text-anchor="middle" font-family="Raleway" font-size="12.020683138636162px" transform="rotate(18000, 729, 295)" fill="rgb(128,189,255)" x="729" y="300">Vercel</text><text text-anchor="middle" font-family="Raleway" font-size="7.212409883181697px" transform="rotate(12600, 731, 272)" fill="rgb(64,156,255)" x="731" y="274">JavaScript</text><text text-anchor="middle" font-family="Helvetica" font-size="12.020683138636162px" transform="rotate(11880.000000000002, 912, 237)" fill="rgb(170,211,255)" x="912" y="241.5">React</text><text text-anchor="middle" font-family="Helvetica" font-size="14.424819766363393px" transform="rotate(6120.000000000001, 936, 75)" fill="rgb(85,167,255)" x="936" y="78.5">Iconify</text><text text-anchor="middle" font-family="Raleway" font-size="28.849639532726787px" transform="rotate(2160, 192, 255)" fill="rgb(106,178,255)" x="192" y="265.5">Git</text><text text-anchor="middle" font-family="Raleway" font-size="9.616546510908929px" transform="rotate(6839.999999999999, 283, 47)" fill="rgb(21,134,255)" x="283" y="50.5">HTML5</text><text text-anchor="middle" font-family="Aboreto" font-size="9.616546510908929px" transform="rotate(6120.000000000001, 792, 249)" fill="rgb(0,123,255)" x="792" y="252.5">npm</text><text text-anchor="middle" font-family="Helvetica" font-size="9.616546510908929px" transform="rotate(15480, 656, 290)" fill="rgb(42,145,255)" x="656" y="293.5">CSS3</text><text text-anchor="middle" font-family="Raleway" font-size="6.25px" transform="rotate(10799.999999999998, 800, 131)" fill="rgb(234,244,255)" x="800" y="133.5">Thank You</text><text text-anchor="middle" font-family="Raleway" font-size="6.010341569318081px" transform="rotate(15480, 30, 169)" fill="rgb(149,200,255)" x="30" y="170.5">React Bootstrap</text><text text-anchor="middle" font-family="Raleway" font-size="6.010341569318081px" transform="rotate(2520, 770, 5)" fill="rgb(191,222,255)" x="770" y="6.5">Open Source</text><text text-anchor="middle" font-family="Helvetica" font-size="12.020683138636162px" transform="rotate(17639.999999999996, 897, 163)" fill="rgb(213,233,255)" x="897" y="167.5">GitHub</text><text text-anchor="middle" font-family="Raleway" font-size="12.020683138636162px" transform="rotate(16200.000000000002, 257, 210)" fill="rgb(128,189,255)" x="257" y="215">Vercel</text><text text-anchor="middle" font-family="Raleway" font-size="7.212409883181697px" transform="rotate(4320, 24, 98)" fill="rgb(64,156,255)" x="24" y="100">JavaScript</text><text text-anchor="middle" font-family="Helvetica" font-size="12.020683138636162px" transform="rotate(13679.999999999998, 286, 31)" fill="rgb(170,211,255)" x="286" y="35.5">React</text><text text-anchor="middle" font-family="Raleway" font-size="7.212409883181697px" transform="rotate(12240.000000000002, 312, 195)" fill="rgb(85,167,255)" x="312" y="197">Iconify</text><text text-anchor="middle" font-family="Helvetica" font-size="14.424819766363393px" transform="rotate(16920, 11, 35)" fill="rgb(106,178,255)" x="11" y="40.5">Git</text><text text-anchor="middle" font-family="Helvetica" font-size="9.616546510908929px" transform="rotate(7919.999999999999, 693, 163)" fill="rgb(21,134,255)" x="693" y="166.5">HTML5</text><text text-anchor="middle" font-family="Raleway" font-size="9.616546510908929px" transform="rotate(18000, 656, 247)" fill="rgb(0,123,255)" x="656" y="249">npm</text><text text-anchor="middle" font-family="Helvetica" font-size="9.616546510908929px" transform="rotate(16920, 518, 174)" fill="rgb(42,145,255)" x="518" y="177.5">CSS3</text><text text-anchor="middle" font-family="Helvetica" font-size="6.25px" transform="rotate(10799.999999999998, 16, 72)" fill="rgb(234,244,255)" x="16" y="74.5">Thank You</text><text text-anchor="middle" font-family="Helvetica" font-size="6.010341569318081px" transform="rotate(13320, 432, 150)" fill="rgb(149,200,255)" x="432" y="151.5">React Bootstrap</text><text text-anchor="middle" font-family="Aboreto" font-size="6.010341569318081px" transform="rotate(1800, 578, 187)" fill="rgb(191,222,255)" x="578" y="189.5">Open Source</text><text text-anchor="middle" font-family="Raleway" font-size="12.020683138636162px" transform="rotate(2160, 28, 214)" fill="rgb(213,233,255)" x="28" y="219">GitHub</text><text text-anchor="middle" font-family="Raleway" font-size="12.020683138636162px" transform="rotate(7919.999999999999, 416, 238)" fill="rgb(128,189,255)" x="416" y="243">Vercel</text><text text-anchor="middle" font-family="Raleway" font-size="7.212409883181697px" transform="rotate(7919.999999999999, 246, 280)" fill="rgb(64,156,255)" x="246" y="282">JavaScript</text><text text-anchor="middle" font-family="Aboreto" font-size="12.020683138636162px" transform="rotate(16560, 529, 71)" fill="rgb(170,211,255)" x="529" y="75.5">React</text><text text-anchor="middle" font-family="Helvetica" font-size="7.212409883181697px" transform="rotate(6120.000000000001, 49, 125)" fill="rgb(85,167,255)" x="49" y="126.5">Iconify</text><text text-anchor="middle" font-family="Helvetica" font-size="14.424819766363393px" transform="rotate(10080, 50, 271)" fill="rgb(106,178,255)" x="50" y="276.5">Git</text><text text-anchor="middle" font-family="Helvetica" font-size="9.616546510908929px" transform="rotate(7200, 652, 5)" fill="rgb(21,134,255)" x="652" y="8.5">HTML5</text><text text-anchor="middle" font-family="Raleway" font-size="9.616546510908929px" transform="rotate(18000, 355, 170)" fill="rgb(0,123,255)" x="355" y="172">npm</text><text text-anchor="middle" font-family="Helvetica" font-size="9.616546510908929px" transform="rotate(1440, 493, 79)" fill="rgb(42,145,255)" x="493" y="82.5">CSS3</text><text text-anchor="middle" font-family="Helvetica" font-size="6.25px" transform="rotate(6479.999999999999, 574, 119)" fill="rgb(234,244,255)" x="574" y="121.5">Thank You</text><text text-anchor="middle" font-family="Helvetica" font-size="6.010341569318081px" transform="rotate(11520, 618, 78)" fill="rgb(149,200,255)" x="618" y="79.5">React Bootstrap</text><text text-anchor="middle" font-family="Aboreto" font-size="6.010341569318081px" transform="rotate(6479.999999999999, 630, 297)" fill="rgb(191,222,255)" x="630" y="299.5">Open Source</text><text text-anchor="middle" font-family="Helvetica" font-size="12.020683138636162px" transform="rotate(17280, 665, 71)" fill="rgb(213,233,255)" x="665" y="75.5">GitHub</text><text text-anchor="middle" font-family="Raleway" font-size="12.020683138636162px" transform="rotate(360, 325, 72)" fill="rgb(128,189,255)" x="325" y="77">Vercel</text><text text-anchor="middle" font-family="Aboreto" font-size="7.212409883181697px" transform="rotate(11880.000000000002, 415, 275)" fill="rgb(64,156,255)" x="415" y="276.5">JavaScript</text><text text-anchor="middle" font-family="Helvetica" font-size="12.020683138636162px" transform="rotate(14039.999999999998, 522, 266)" fill="rgb(170,211,255)" x="522" y="270.5">React</text><text text-anchor="middle" font-family="Helvetica" font-size="7.212409883181697px" transform="rotate(14400, 261, 147)" fill="rgb(85,167,255)" x="261" y="148.5">Iconify</text><text text-anchor="middle" font-family="Helvetica" font-size="14.424819766363393px" transform="rotate(12600, 55, 225)" fill="rgb(106,178,255)" x="55" y="230.5">Git</text><text text-anchor="middle" font-family="Helvetica" font-size="9.616546510908929px" transform="rotate(2160, 847, 273)" fill="rgb(21,134,255)" x="847" y="276.5">HTML5</text><text text-anchor="middle" font-family="Helvetica" font-size="9.616546510908929px" transform="rotate(2520, 472, 273)" fill="rgb(0,123,255)" x="472" y="274.5">npm</text><text text-anchor="middle" font-family="Aboreto" font-size="9.616546510908929px" transform="rotate(6839.999999999999, 562, 71)" fill="rgb(42,145,255)" x="562" y="74.5">CSS3</text><text text-anchor="middle" font-family="Helvetica" font-size="6.25px" transform="rotate(12959.999999999998, 434, 69)" fill="rgb(234,244,255)" x="434" y="71.5">Thank You</text><text text-anchor="middle" font-family="Helvetica" font-size="6.010341569318081px" transform="rotate(12600, 598, 243)" fill="rgb(149,200,255)" x="598" y="244.5">React Bootstrap</text><text text-anchor="middle" font-family="Aboreto" font-size="6.010341569318081px" transform="rotate(720, 384, 150)" fill="rgb(191,222,255)" x="384" y="152.5">Open Source</text><text text-anchor="middle" font-family="Raleway" font-size="6.010341569318081px" transform="rotate(12240.000000000002, 190, 5)" fill="rgb(213,233,255)" x="190" y="7.5">GitHub</text><text text-anchor="middle" font-family="Aboreto" font-size="6.010341569318081px" transform="rotate(16200.000000000002, 102, 23)" fill="rgb(128,189,255)" x="102" y="25.5">Vercel</text></svg>